<svg width="389" height="389" viewBox="0 0 389 389" fill="none" xmlns="http://www.w3.org/2000/svg">
<path d="M54.0953 24.3084C53.6601 24.3269 53.2281 24.3921 52.8067 24.5029C45.1133 24.9838 37.89 28.3704 32.5996 33.9768C27.3091 39.5832 24.3468 46.9906 24.3125 54.699V66.8553C24.3125 68.4673 24.9529 70.0133 26.0927 71.1531C27.2326 72.293 28.7786 72.9334 30.3906 72.9334H72.9375V309.98C72.9375 324.993 84.571 336.116 98.9154 338.547C99.4898 339.134 100.177 339.597 100.935 339.911C101.694 340.224 102.508 340.381 103.328 340.371H176.412C176.898 344.188 178.478 347.896 181.323 350.837L189.589 359.383C191.234 361.066 193.199 362.403 195.368 363.316C197.536 364.229 199.866 364.699 202.219 364.699C204.572 364.699 206.902 364.229 209.071 363.316C211.24 362.403 213.205 361.066 214.85 359.383L231.188 342.437L231.346 342.267C231.362 342.251 231.378 342.235 231.394 342.219L233.181 340.371H334.297C351.024 340.371 364.688 326.707 364.688 309.98V297.824C364.688 296.212 364.047 294.666 362.907 293.526C361.767 292.386 360.221 291.746 358.609 291.746H316.062V255.678C316.063 255.27 316.022 254.863 315.941 254.463L338.43 231.123C338.471 231.079 338.512 231.034 338.552 230.989C338.568 230.973 338.584 230.957 338.6 230.94C338.68 230.85 338.757 230.756 338.831 230.661C339.352 230.055 339.749 229.353 339.998 228.594L352.361 190.059C352.657 189.139 352.729 188.163 352.572 187.21C352.415 186.257 352.033 185.355 351.458 184.579C350.883 183.803 350.131 183.175 349.265 182.748C348.399 182.32 347.443 182.105 346.477 182.121V182.145C345.841 182.152 345.209 182.258 344.605 182.461L316.062 192.332V54.699C316.062 37.972 302.399 24.3084 285.672 24.3084H54.7031C54.5006 24.2982 54.2978 24.2982 54.0953 24.3084ZM54.7031 36.4646C64.9144 36.4646 72.9375 44.4878 72.9375 54.699V60.7771H36.4688V54.699C36.4688 44.4878 44.4919 36.4646 54.7031 36.4646ZM78.8454 36.4646H285.672C295.883 36.4646 303.906 44.4878 303.906 54.699V198.106L272.239 230.965C272.158 230.963 272.077 230.963 271.996 230.965H230.969C230.766 230.954 230.563 230.954 230.361 230.965C228.749 231.045 227.235 231.763 226.152 232.96C225.069 234.157 224.506 235.735 224.587 237.347C224.667 238.959 225.385 240.473 226.582 241.556C227.779 242.638 229.357 243.201 230.969 243.121H260.508L213.634 291.746H127.641C126.029 291.746 124.483 292.386 123.343 293.526C122.203 294.666 121.562 296.212 121.562 297.824V309.98C121.562 320.192 113.539 328.215 103.328 328.215C93.1169 328.215 85.0938 320.192 85.0938 309.98V67.8278C85.2035 67.1677 85.2035 66.4941 85.0938 65.8341V54.699C85.0938 47.8429 82.7111 41.5703 78.8454 36.4646ZM145.255 60.7771C144.457 60.8178 143.674 61.0154 142.953 61.3584C142.231 61.7015 141.584 62.1834 141.048 62.7766C140.512 63.3698 140.099 64.0626 139.831 64.8156C139.563 65.5687 139.446 66.367 139.487 67.1652C139.528 67.9634 139.725 68.7458 140.068 69.4676C140.411 70.1895 140.893 70.8367 141.486 71.3723C142.08 71.908 142.772 72.3215 143.525 72.5893C144.278 72.8572 145.077 72.9741 145.875 72.9334H243.125C244.737 72.9334 246.283 72.293 247.423 71.1531C248.563 70.0133 249.203 68.4673 249.203 66.8553C249.203 65.2432 248.563 63.6972 247.423 62.5574C246.283 61.4175 244.737 60.7771 243.125 60.7771H145.875C145.673 60.767 145.458 60.767 145.255 60.7771ZM108.786 97.2459C107.988 97.2866 107.206 97.4841 106.484 97.8272C105.762 98.1703 105.115 98.6521 104.579 99.2453C104.044 99.8385 103.63 100.531 103.362 101.284C103.094 102.037 102.977 102.836 103.018 103.634C103.059 104.432 103.256 105.215 103.599 105.936C103.943 106.658 104.424 107.305 105.018 107.841C105.611 108.377 106.304 108.79 107.057 109.058C107.81 109.326 108.608 109.443 109.406 109.402H279.594C281.206 109.402 282.752 108.762 283.892 107.622C285.032 106.482 285.672 104.936 285.672 103.324C285.672 101.712 285.032 100.166 283.892 99.0261C282.752 97.8863 281.206 97.2459 279.594 97.2459H109.406C109.204 97.2357 108.989 97.2357 108.786 97.2459ZM108.786 121.558C107.988 121.599 107.206 121.797 106.484 122.14C105.762 122.483 105.115 122.965 104.579 123.558C104.044 124.151 103.63 124.844 103.362 125.597C103.094 126.35 102.977 127.148 103.018 127.946C103.059 128.745 103.256 129.527 103.599 130.249C103.943 130.971 104.424 131.618 105.018 132.154C105.611 132.689 106.304 133.103 107.057 133.371C107.81 133.638 108.608 133.755 109.406 133.715H279.594C281.206 133.715 282.752 133.074 283.892 131.934C285.032 130.795 285.672 129.249 285.672 127.637C285.672 126.024 285.032 124.478 283.892 123.339C282.752 122.199 281.206 121.558 279.594 121.558H109.406C109.204 121.548 108.989 121.548 108.786 121.558ZM108.786 145.871C107.988 145.912 107.206 146.109 106.484 146.452C105.762 146.795 105.115 147.277 104.579 147.87C104.044 148.464 103.63 149.156 103.362 149.909C103.094 150.662 102.977 151.461 103.018 152.259C103.059 153.057 103.256 153.84 103.599 154.561C103.943 155.283 104.424 155.93 105.018 156.466C105.611 157.002 106.304 157.415 107.057 157.683C107.81 157.951 108.608 158.068 109.406 158.027H279.594C281.206 158.027 282.752 157.387 283.892 156.247C285.032 155.107 285.672 153.561 285.672 151.949C285.672 150.337 285.032 148.791 283.892 147.651C282.752 146.511 281.206 145.871 279.594 145.871H109.406C109.204 145.861 108.989 145.861 108.786 145.871ZM108.786 170.183C107.988 170.224 107.206 170.422 106.484 170.765C105.762 171.108 105.115 171.59 104.579 172.183C104.044 172.776 103.63 173.469 103.362 174.222C103.094 174.975 102.977 175.773 103.018 176.571C103.059 177.37 103.256 178.152 103.599 178.874C103.943 179.596 104.424 180.243 105.018 180.779C105.611 181.314 106.304 181.728 107.057 181.996C107.81 182.263 108.608 182.38 109.406 182.34H212.734C214.346 182.34 215.892 181.699 217.032 180.559C218.172 179.42 218.812 177.874 218.812 176.262C218.812 174.649 218.172 173.103 217.032 171.964C215.892 170.824 214.346 170.183 212.734 170.183H109.406C109.204 170.173 108.989 170.173 108.786 170.183ZM149.692 194.593C143.395 194.593 138.071 197.754 134.071 201.741C130.096 205.692 127.069 210.615 124.626 215.745C119.836 225.762 117.028 235.851 117.028 245.443C117.028 255.472 119.484 264.723 125.902 270.947C131.895 276.757 140.344 279.517 149.692 279.517H149.716C159.077 279.517 167.513 276.757 173.506 270.947C179.949 264.723 182.417 255.472 182.417 245.443C182.417 235.839 179.584 225.75 174.795 215.745C172.339 210.627 169.337 205.692 165.374 201.741C161.374 197.766 156.025 194.593 149.716 194.593H149.692ZM337.081 197.936L331.537 215.222L320.451 203.71L337.081 197.936ZM149.692 206.749H149.716C151.941 206.749 154.251 207.843 156.767 210.36C159.32 212.888 161.8 216.705 163.854 220.997C168.06 229.798 170.26 238.283 170.26 245.443C170.26 253.381 168.097 259.264 165.058 262.218C161.739 265.428 156.755 267.36 149.716 267.36H149.692C142.666 267.36 137.67 265.415 134.363 262.206C131.324 259.264 129.184 253.381 129.184 245.443C129.184 238.271 131.385 229.785 135.591 220.997C137.645 216.705 140.113 212.888 142.641 210.36C145.17 207.843 147.48 206.749 149.692 206.749ZM309.462 209.837L325.775 226.734L243.453 312.168L227.212 295.308C227.192 295.283 227.172 295.259 227.152 295.235L309.462 209.837ZM303.906 266.947V291.746H280.019L303.906 266.947ZM133.719 303.902H201.927L198.208 307.744C198.183 307.768 198.159 307.792 198.135 307.816L197.989 307.987C197.931 308.042 197.874 308.099 197.819 308.157L181.323 325.273C180.453 326.171 179.679 327.157 179.013 328.215H126.145C130.266 323.024 133.719 317.08 133.719 309.98V303.902ZM268.313 303.902H352.531V309.98C352.531 320.192 344.508 328.215 334.297 328.215H244.888L268.313 303.902ZM218.715 303.999L234.956 320.872C234.98 320.889 235.005 320.905 235.029 320.921L226.957 329.309L210.643 312.375L218.715 303.999ZM202.219 321.115L218.533 338.073L206.085 350.959C203.775 353.354 200.651 353.354 198.341 350.959L190.075 342.389C188.963 341.22 188.342 339.669 188.342 338.055C188.342 336.442 188.963 334.89 190.075 333.721L202.219 321.115Z" fill="url(#paint0_linear_26_2)"/>
<defs>
<linearGradient id="paint0_linear_26_2" x1="24.3125" y1="194.508" x2="340.375" y2="194.508" gradientUnits="userSpaceOnUse">
<stop stop-color="#4B44BE"/>
<stop offset="1" stop-color="#84B5EF"/>
</linearGradient>
</defs>
</svg>
