<svg width="82" height="82" viewBox="0 0 82 82" fill="none" xmlns="http://www.w3.org/2000/svg">
<rect width="82" height="82" fill="white"/>
<path d="M55.5364 27.6255L52.8201 24.9093C52.7465 24.8356 52.6632 24.7811 52.5767 24.7459C52.487 24.7075 52.3845 24.6882 52.2852 24.6882C52.1827 24.6882 52.0834 24.7075 51.9937 24.7459C51.9072 24.7811 51.824 24.8356 51.7503 24.9093L40.3441 36.3154L44.1302 40.1016L55.5364 28.6954C55.6101 28.6217 55.6645 28.5384 55.6998 28.4519C55.7382 28.3622 55.7574 28.2597 55.7574 28.1604C55.7574 28.0579 55.7382 27.9586 55.6998 27.8689C55.6645 27.7825 55.6101 27.6992 55.5364 27.6255ZM53.5153 24.2141L56.2315 26.9304C56.3949 27.0937 56.5198 27.2891 56.6063 27.4973C56.696 27.712 56.7408 27.9394 56.7408 28.1636C56.7408 28.3878 56.696 28.6152 56.6063 28.8298C56.5198 29.038 56.3949 29.2302 56.2315 29.3968L44.476 41.1523C44.2838 41.3445 43.9731 41.3445 43.7809 41.1523L39.2965 36.6679C39.1043 36.4757 39.1043 36.165 39.2965 35.9728L51.052 24.2173C51.2154 24.0539 51.4108 23.929 51.619 23.8425C51.8336 23.7528 52.061 23.708 52.2852 23.708C52.5094 23.708 52.7369 23.7529 52.9515 23.8425C53.1597 23.929 53.3519 24.0539 53.5184 24.2173L53.5153 24.2141Z" fill="black"/>
<path d="M39.1566 36.2611C39.1566 36.2547 39.1598 36.2451 39.1598 36.2387C39.1758 36.1394 39.2207 36.0433 39.2975 35.9664C39.4897 35.7742 39.8004 35.7742 39.9926 35.9664L44.4706 40.4443C44.5378 40.5084 44.5859 40.5949 44.6083 40.691C44.666 40.9568 44.4994 41.2195 44.2335 41.2772L44.1278 40.7967L44.2335 41.274L38.9676 42.4431C38.9099 42.4591 38.8523 42.4687 38.7914 42.4719C38.7466 42.4751 38.7017 42.4719 38.6537 42.4655C38.628 42.4623 38.5992 42.4591 38.5736 42.4527C38.3686 42.4047 38.1988 42.2765 38.0931 42.11C37.997 41.9594 37.9522 41.7737 37.9778 41.5847V41.4982C37.981 41.4854 37.9842 41.4694 37.9906 41.4565L39.1437 36.2611V36.2579L39.1566 36.2611ZM39.9318 37.2957L39.0157 41.431L43.1509 40.5148L39.9318 37.2957ZM38.7594 41.6872L38.4711 41.6231L38.6025 41.652L38.7562 41.6872H38.7594Z" fill="black"/>
<path d="M50.2884 26.0816C50.0963 25.8895 49.7856 25.8895 49.5934 26.0816C49.4012 26.2738 49.4012 26.5845 49.5934 26.7767L53.671 30.8543C53.8632 31.0465 54.1739 31.0465 54.3661 30.8543C54.5582 30.6621 54.5582 30.3514 54.3661 30.1593L50.2884 26.0816Z" fill="black"/>
<path d="M43.2203 34.0573C43.0281 34.2495 43.0281 34.5602 43.2203 34.7524C43.4125 34.9446 43.7232 34.9446 43.9154 34.7524L48.1723 30.4955C48.3645 30.3033 48.3645 29.9926 48.1723 29.8004C47.9802 29.6082 47.6695 29.6082 47.4773 29.8004L43.2203 34.0573Z" fill="black"/>
<path d="M44.4586 35.2927C44.2664 35.4849 44.2664 35.7956 44.4586 35.9878C44.6508 36.18 44.9615 36.18 45.1537 35.9878L49.4106 31.7308C49.6028 31.5386 49.6028 31.2279 49.4106 31.0357C49.2184 30.8436 48.9077 30.8436 48.7155 31.0357L44.4586 35.2927Z" fill="black"/>
<path d="M45.6949 36.53C45.5027 36.7222 45.5027 37.0329 45.6949 37.2251C45.8871 37.4173 46.1978 37.4173 46.39 37.2251L50.6469 32.9681C50.8391 32.7759 50.8391 32.4652 50.6469 32.273C50.4548 32.0809 50.1441 32.0809 49.9519 32.273L45.6949 36.53Z" fill="black"/>
<path d="M25.4117 34.3893C25.2131 34.5718 25.2003 34.8825 25.3829 35.0843C25.5654 35.2829 25.8761 35.2957 26.0779 35.1132C26.9492 34.3156 27.4874 34.29 27.8653 34.7C28.4098 35.2925 28.807 36.609 29.2394 38.0408C29.6943 39.5462 30.1875 41.1735 30.9787 42.3811C32.2343 44.2997 34.1307 45.155 37.4683 42.9672C37.6957 42.8199 37.7598 42.5156 37.6093 42.2882C37.4619 42.0607 37.1576 41.9967 36.9302 42.1472C34.2331 43.9121 32.7533 43.2971 31.802 41.8429C31.0877 40.7539 30.6168 39.1971 30.1812 37.7557C29.7135 36.215 29.2843 34.7928 28.586 34.0337C27.8013 33.1784 26.8179 33.0984 25.4117 34.3893Z" fill="black"/>
<path d="M10.9883 10.7217H71.0049C71.9082 10.7217 72.7282 11.09 73.3239 11.6858C73.9197 12.2816 74.2881 13.1016 74.2881 14.0049V59.0188C74.2881 59.9221 73.9197 60.7421 73.3239 61.3378C72.7282 61.9336 71.9081 62.302 71.0049 62.302H10.9883C10.085 62.302 9.26496 61.9336 8.66923 61.3378C8.07346 60.7421 7.70508 59.922 7.70508 59.0188V14.0049C7.70508 13.1016 8.07344 12.2816 8.66923 11.6858C9.26501 11.0901 10.085 10.7217 10.9883 10.7217ZM71.0049 11.705H10.9883C10.3573 11.705 9.78066 11.9645 9.36427 12.3809C8.94786 12.7973 8.68841 13.3738 8.68841 14.0049V59.0188C8.68841 59.6498 8.94786 60.2264 9.36427 60.6428C9.78067 61.0592 10.3572 61.3187 10.9883 61.3187H71.0049C71.6359 61.3187 72.2125 61.0592 72.6289 60.6428C73.0453 60.2264 73.3048 59.6499 73.3048 59.0188V14.0049C73.3048 13.3739 73.0453 12.7973 72.6289 12.3809C72.2125 11.9645 71.636 11.705 71.0049 11.705Z" fill="black"/>
<path d="M10.9875 13.4033H71.0041C71.1707 13.4033 71.3213 13.4706 71.4302 13.5795C71.5391 13.6884 71.6063 13.8389 71.6063 14.0055V53.9584C71.6063 54.1249 71.5391 54.2755 71.4302 54.3844H71.427C71.318 54.4933 71.1675 54.5606 71.0009 54.5606H10.9843C10.8177 54.5606 10.6672 54.4933 10.5583 54.3844C10.4494 54.2755 10.3789 54.1249 10.3789 53.9584V14.0055C10.3789 13.8389 10.4462 13.6884 10.5551 13.5795C10.664 13.4706 10.8145 13.4033 10.9811 13.4033H10.9875ZM70.6237 14.3867H11.3655V53.5802H70.6237V14.3867Z" fill="black"/>
<path d="M40.9989 56.2285C41.4729 56.2285 41.899 56.4207 42.2097 56.7314C42.5204 57.0421 42.7126 57.4713 42.7126 57.9422C42.7126 58.4163 42.5204 58.8423 42.2097 59.153C41.899 59.4637 41.4698 59.6559 40.9989 59.6559C40.5248 59.6559 40.0987 59.4637 39.788 59.153C39.4773 58.8423 39.2852 58.4131 39.2852 57.9422C39.2852 57.4682 39.4773 57.0421 39.788 56.7314C40.0988 56.4207 40.528 56.2285 40.9989 56.2285ZM41.5146 57.4265C41.3832 57.2951 41.2007 57.2118 40.9989 57.2118C40.7971 57.2118 40.6145 57.2919 40.4832 57.4265C40.3518 57.5578 40.2685 57.7404 40.2685 57.9422C40.2685 58.144 40.3486 58.3265 40.4832 58.4579C40.6145 58.5892 40.7971 58.6725 40.9989 58.6725C41.2007 58.6725 41.3832 58.5924 41.5146 58.4579C41.6459 58.3265 41.7292 58.144 41.7292 57.9422C41.7292 57.7404 41.6491 57.5578 41.5146 57.4265Z" fill="black"/>
<path d="M33.019 61.3184H49.4797V68.1987H32.5254V61.3184H33.019ZM48.4933 62.3017H33.5094V67.2121H48.4933V62.3017Z" fill="black"/>
<path d="M25.3072 70.2936H56.6854V68.1955H25.3072V70.2936ZM57.1782 71.2769H24.8136C24.5413 71.2769 24.3203 71.0559 24.3203 70.7837V67.7023C24.3203 67.43 24.5413 67.209 24.8136 67.209H57.1782C57.4504 67.209 57.6715 67.43 57.6715 67.7023V70.7837C57.6715 71.0559 57.4504 71.2769 57.1782 71.2769Z" fill="black"/>
</svg>
