<svg width="552" height="552" viewBox="0 0 552 552" fill="none" xmlns="http://www.w3.org/2000/svg">
<rect width="552" height="552" fill="white"/>
<path d="M373.871 185.957L355.586 167.672C355.09 167.176 354.529 166.81 353.947 166.573C353.343 166.314 352.653 166.185 351.985 166.185C351.295 166.185 350.626 166.314 350.023 166.573C349.44 166.81 348.88 167.176 348.384 167.672L271.601 244.456L297.088 269.942L373.871 193.159C374.367 192.663 374.733 192.103 374.97 191.521C375.229 190.917 375.359 190.227 375.359 189.558C375.359 188.868 375.229 188.2 374.97 187.596C374.733 187.014 374.367 186.453 373.871 185.957ZM360.265 162.993L378.55 181.278C379.65 182.378 380.491 183.693 381.073 185.095C381.677 186.539 381.978 188.07 381.978 189.58C381.978 191.089 381.677 192.62 381.073 194.065C380.491 195.466 379.65 196.76 378.55 197.881L299.415 277.016C298.122 278.31 296.03 278.31 294.736 277.016L264.548 246.828C263.255 245.534 263.255 243.443 264.548 242.149L343.683 163.014C344.783 161.915 346.098 161.074 347.5 160.492C348.944 159.888 350.475 159.586 351.985 159.586C353.494 159.586 355.025 159.888 356.47 160.492C357.871 161.074 359.165 161.915 360.286 163.014L360.265 162.993Z" fill="#F77062"/>
<path d="M263.604 244.089C263.604 244.046 263.626 243.981 263.626 243.938C263.734 243.269 264.036 242.623 264.553 242.105C265.847 240.811 267.938 240.811 269.232 242.105L299.376 272.249C299.829 272.681 300.152 273.263 300.303 273.91C300.692 275.699 299.57 277.467 297.781 277.855L297.069 274.621L297.781 277.834L262.332 285.704C261.944 285.812 261.555 285.877 261.146 285.898C260.844 285.92 260.542 285.898 260.219 285.855C260.046 285.834 259.852 285.812 259.68 285.769C258.3 285.446 257.157 284.583 256.445 283.462C255.798 282.448 255.496 281.198 255.669 279.926V279.343C255.691 279.257 255.712 279.149 255.755 279.063L263.517 244.089V244.067L263.604 244.089ZM268.822 251.053L262.655 278.891L290.493 272.724L268.822 251.053ZM260.93 280.616L258.99 280.185L259.874 280.379L260.909 280.616H260.93Z" fill="#F77062"/>
<path d="M338.532 175.564C337.238 174.27 335.147 174.27 333.853 175.564C332.559 176.858 332.559 178.949 333.853 180.243L361.302 207.692C362.596 208.986 364.688 208.986 365.982 207.692C367.275 206.399 367.275 204.307 365.982 203.013L338.532 175.564Z" fill="#F77062"/>
<path d="M290.964 229.253C289.671 230.547 289.671 232.638 290.964 233.932C292.258 235.226 294.35 235.226 295.644 233.932L324.3 205.275C325.594 203.982 325.594 201.89 324.3 200.596C323.006 199.303 320.915 199.303 319.621 200.596L290.964 229.253Z" fill="#F77062"/>
<path d="M299.293 237.575C297.999 238.869 297.999 240.96 299.293 242.254C300.586 243.548 302.678 243.548 303.972 242.254L332.628 213.598C333.922 212.304 333.922 210.212 332.628 208.919C331.334 207.625 329.243 207.625 327.949 208.919L299.293 237.575Z" fill="#F77062"/>
<path d="M307.613 245.899C306.319 247.193 306.319 249.285 307.613 250.578C308.907 251.872 310.998 251.872 312.292 250.578L340.948 221.922C342.242 220.628 342.242 218.537 340.948 217.243C339.655 215.949 337.563 215.949 336.269 217.243L307.613 245.899Z" fill="#F77062"/>
<path d="M171.078 231.498C169.741 232.727 169.655 234.819 170.884 236.177C172.113 237.514 174.204 237.601 175.563 236.372C181.428 231.002 185.051 230.83 187.595 233.59C191.26 237.579 193.934 246.441 196.845 256.08C199.907 266.214 203.227 277.168 208.554 285.297C217.006 298.213 229.771 303.97 252.239 289.243C253.77 288.251 254.202 286.202 253.188 284.672C252.196 283.141 250.148 282.709 248.617 283.723C230.461 295.603 220.499 291.463 214.095 281.674C209.287 274.343 206.117 263.864 203.185 254.16C200.036 243.789 197.147 234.215 192.447 229.105C187.164 223.347 180.544 222.809 171.078 231.498Z" fill="#F77062"/>
<path d="M73.9814 72.1689H477.996C484.077 72.1689 489.597 74.6486 493.607 78.6594C497.617 82.6701 500.097 88.1902 500.097 94.2705V397.291C500.097 403.372 497.618 408.892 493.607 412.902C489.596 416.913 484.076 419.392 477.996 419.392H73.9814C67.9006 419.392 62.3806 416.913 58.3703 412.902C54.3597 408.891 51.8799 403.371 51.8799 397.291V94.2705C51.8799 88.1896 54.3596 82.6696 58.3703 78.6594C62.3809 74.6487 67.9011 72.1689 73.9814 72.1689ZM477.996 78.7885H73.9814C69.7336 78.7885 65.8521 80.5351 63.0491 83.3382C60.2459 86.1413 58.4994 90.0224 58.4994 94.2706V397.291C58.4994 401.539 60.2459 405.42 63.0491 408.223C65.8522 411.026 69.7332 412.773 73.9814 412.773H477.996C482.244 412.773 486.125 411.026 488.928 408.223C491.731 405.42 493.478 401.539 493.478 397.291V94.2706C493.478 90.0228 491.731 86.1413 488.928 83.3382C486.125 80.5351 482.244 78.7885 477.996 78.7885Z" fill="#F77062"/>
<path d="M73.9846 90.2188H477.999C479.12 90.2188 480.134 90.6716 480.867 91.4047C481.6 92.1378 482.053 93.1512 482.053 94.2725V363.223C482.053 364.345 481.6 365.358 480.867 366.091H480.845C480.112 366.824 479.099 367.277 477.977 367.277H73.963C72.8417 367.277 71.8283 366.824 71.0952 366.091C70.3621 365.358 69.8877 364.345 69.8877 363.223V94.2725C69.8877 93.1512 70.3405 92.1378 71.0736 91.4047C71.8067 90.6716 72.8202 90.2188 73.9414 90.2188H73.9846ZM475.438 96.8383H76.5293V360.678H475.438V96.8383Z" fill="#F77062"/>
<path d="M276.003 378.507C279.194 378.507 282.062 379.801 284.154 381.892C286.245 383.984 287.539 386.873 287.539 390.043C287.539 393.234 286.245 396.102 284.154 398.194C282.062 400.285 279.173 401.579 276.003 401.579C272.812 401.579 269.944 400.285 267.852 398.194C265.761 396.102 264.467 393.213 264.467 390.043C264.467 386.852 265.761 383.984 267.852 381.892C269.944 379.801 272.833 378.507 276.003 378.507ZM279.475 386.571C278.59 385.687 277.361 385.126 276.003 385.126C274.644 385.126 273.415 385.665 272.531 386.571C271.647 387.455 271.087 388.684 271.087 390.043C271.087 391.401 271.626 392.63 272.531 393.514C273.415 394.398 274.644 394.959 276.003 394.959C277.361 394.959 278.59 394.42 279.475 393.514C280.359 392.63 280.919 391.401 280.919 390.043C280.919 388.684 280.38 387.455 279.475 386.571Z" fill="#F77062"/>
<path d="M222.274 412.769H333.083V459.085H218.951V412.769H222.274ZM326.442 419.388H225.575V452.444H326.442V419.388Z" fill="#F77062"/>
<path d="M170.385 473.191H381.613V459.068H170.385V473.191ZM384.931 479.811H167.062C165.229 479.811 163.741 478.323 163.741 476.49V455.747C163.741 453.915 165.229 452.427 167.062 452.427H384.931C386.764 452.427 388.251 453.915 388.251 455.747V476.49C388.251 478.323 386.764 479.811 384.931 479.811Z" fill="#F77062"/>
</svg>
