<svg width="56" height="56" viewBox="0 0 56 56" fill="none" xmlns="http://www.w3.org/2000/svg">
<circle cx="28" cy="28" r="28" fill="#F77062"/>
<path d="M22.6622 18.8182V37H18.8181V22.467H18.7116L14.5479 25.0771V21.668L19.0489 18.8182H22.6622ZM34.1124 37.3995C32.5854 37.3936 31.2715 37.0178 30.1706 36.272C29.0757 35.5263 28.2323 34.4461 27.6404 33.0316C27.0545 31.6171 26.7645 29.9155 26.7704 27.9268C26.7704 25.9441 27.0634 24.2544 27.6493 22.8576C28.2412 21.4608 29.0846 20.3984 30.1795 19.6705C31.2804 18.9366 32.5913 18.5696 34.1124 18.5696C35.6335 18.5696 36.9415 18.9366 38.0364 19.6705C39.1373 20.4044 39.9836 21.4697 40.5755 22.8665C41.1673 24.2573 41.4603 25.9441 41.4544 27.9268C41.4544 29.9214 41.1584 31.6259 40.5666 33.0405C39.9806 34.455 39.1402 35.5352 38.0453 36.2809C36.9503 37.0266 35.6394 37.3995 34.1124 37.3995ZM34.1124 34.2124C35.1541 34.2124 35.9856 33.6886 36.6071 32.641C37.2285 31.5934 37.5363 30.022 37.5304 27.9268C37.5304 26.5478 37.3883 25.3996 37.1042 24.4822C36.8261 23.5649 36.4295 22.8754 35.9146 22.4137C35.4056 21.9521 34.8049 21.7212 34.1124 21.7212C33.0766 21.7212 32.248 22.2391 31.6266 23.2749C31.0051 24.3106 30.6915 25.8613 30.6855 27.9268C30.6855 29.3236 30.8246 30.4896 31.1028 31.4247C31.3869 32.3539 31.7864 33.0523 32.3013 33.5199C32.8162 33.9815 33.4199 34.2124 34.1124 34.2124Z" fill="white"/>
</svg>
