<svg width="56" height="56" viewBox="0 0 56 56" fill="none" xmlns="http://www.w3.org/2000/svg">
<circle cx="28" cy="28" r="28" fill="#F77062"/>
<path d="M27.4922 37.2486C26.125 37.2486 24.9088 37.0266 23.8434 36.5827C22.784 36.1329 21.9525 35.5204 21.3488 34.745C20.7451 33.9697 20.4432 33.0908 20.4432 32.1083C20.4432 31.3507 20.6149 30.6553 20.9581 30.022C21.3073 29.3828 21.7808 28.8531 22.3786 28.4329C22.9764 28.0067 23.6452 27.7345 24.385 27.6161V27.4918C23.4143 27.2965 22.6272 26.826 22.0235 26.0803C21.4198 25.3286 21.1179 24.4556 21.1179 23.4613C21.1179 22.5202 21.3932 21.6828 21.9436 20.9489C22.494 20.209 23.2486 19.629 24.2074 19.2088C25.1722 18.7827 26.2671 18.5696 27.4922 18.5696C28.7174 18.5696 29.8093 18.7827 30.7682 19.2088C31.7329 19.6349 32.4905 20.2179 33.0409 20.9577C33.5913 21.6916 33.8695 22.5262 33.8754 23.4613C33.8695 24.4615 33.5617 25.3345 32.9521 26.0803C32.3425 26.826 31.5612 27.2965 30.6084 27.4918V27.6161C31.3363 27.7345 31.9963 28.0067 32.5881 28.4329C33.1859 28.8531 33.6594 29.3828 34.0086 30.022C34.3637 30.6553 34.5442 31.3507 34.5501 32.1083C34.5442 33.0908 34.2394 33.9697 33.6357 34.745C33.032 35.5204 32.1975 36.1329 31.1321 36.5827C30.0727 37.0266 28.8594 37.2486 27.4922 37.2486ZM27.4922 34.4254C28.1018 34.4254 28.6345 34.3159 29.0902 34.0969C29.546 33.872 29.9011 33.5643 30.1556 33.1737C30.416 32.7771 30.5462 32.3214 30.5462 31.8065C30.5462 31.2797 30.413 30.8151 30.1467 30.4126C29.8804 30.0043 29.5193 29.6847 29.0636 29.4538C28.6079 29.2171 28.0841 29.0987 27.4922 29.0987C26.9063 29.0987 26.3825 29.2171 25.9209 29.4538C25.4592 29.6847 25.0952 30.0043 24.8289 30.4126C24.5685 30.8151 24.4383 31.2797 24.4383 31.8065C24.4383 32.3214 24.5655 32.7771 24.82 33.1737C25.0745 33.5643 25.4326 33.872 25.8942 34.0969C26.3559 34.3159 26.8885 34.4254 27.4922 34.4254ZM27.4922 26.3022C28.0012 26.3022 28.454 26.1986 28.8505 25.9915C29.2471 25.7843 29.5578 25.4973 29.7827 25.1303C30.0076 24.7634 30.1201 24.3402 30.1201 23.8608C30.1201 23.3873 30.0076 22.973 29.7827 22.6179C29.5578 22.2569 29.25 21.9757 28.8594 21.7745C28.4688 21.5674 28.0131 21.4638 27.4922 21.4638C26.9773 21.4638 26.5216 21.5674 26.125 21.7745C25.7285 21.9757 25.4178 22.2569 25.1929 22.6179C24.9739 22.973 24.8644 23.3873 24.8644 23.8608C24.8644 24.3402 24.9768 24.7634 25.2017 25.1303C25.4267 25.4973 25.7374 25.7843 26.1339 25.9915C26.5305 26.1986 26.9832 26.3022 27.4922 26.3022Z" fill="white"/>
</svg>
