<svg width="56" height="56" viewBox="0 0 56 56" fill="none" xmlns="http://www.w3.org/2000/svg">
<circle cx="28" cy="28" r="28" fill="#F77062"/>
<path d="M27.5577 37.2486C26.303 37.2486 25.1844 37.0178 24.2019 36.5561C23.2253 36.0945 22.45 35.4582 21.8759 34.6474C21.3018 33.8365 21.0029 32.9073 20.9792 31.8597H24.7079C24.7493 32.564 25.0453 33.1352 25.5957 33.5732C26.1461 34.0111 26.8001 34.2301 27.5577 34.2301C28.1614 34.2301 28.6941 34.0969 29.1557 33.8306C29.6233 33.5584 29.9873 33.1825 30.2477 32.7031C30.514 32.2178 30.6472 31.6615 30.6472 31.0341C30.6472 30.3949 30.5111 29.8326 30.2388 29.3473C29.9725 28.862 29.6026 28.4832 29.1291 28.2109C28.6556 27.9387 28.1141 27.7996 27.5044 27.7937C26.9718 27.7937 26.4539 27.9032 25.9508 28.1222C25.4537 28.3411 25.066 28.64 24.7878 29.0188L21.3699 28.4062L22.231 18.8182H33.3461V21.9609H25.4004L24.9299 26.5153H25.0364C25.356 26.0655 25.8384 25.6926 26.4835 25.3967C27.1286 25.1007 27.8507 24.9528 28.6497 24.9528C29.7446 24.9528 30.7212 25.2102 31.5794 25.7251C32.4376 26.2401 33.1152 26.9473 33.6124 27.8469C34.1096 28.7406 34.3552 29.7705 34.3493 30.9364C34.3552 32.1616 34.0711 33.2506 33.497 34.2035C32.9288 35.1504 32.1328 35.8962 31.1088 36.4407C30.0909 36.9793 28.9071 37.2486 27.5577 37.2486Z" fill="white"/>
</svg>
