<svg width="56" height="56" viewBox="0 0 56 56" fill="none" xmlns="http://www.w3.org/2000/svg">
<circle cx="28" cy="28" r="28" fill="#F77062"/>
<path d="M21.4737 37V34.2301L27.9457 28.2376C28.4961 27.7049 28.9577 27.2255 29.3306 26.7994C29.7094 26.3732 29.9964 25.956 30.1918 25.5476C30.3871 25.1333 30.4847 24.6864 30.4847 24.207C30.4847 23.6744 30.3634 23.2157 30.1207 22.831C29.8781 22.4403 29.5466 22.1415 29.1264 21.9343C28.7062 21.7212 28.2298 21.6147 27.6971 21.6147C27.1407 21.6147 26.6554 21.7272 26.2411 21.9521C25.8268 22.177 25.5072 22.4995 25.2823 22.9197C25.0574 23.34 24.945 23.8401 24.945 24.4201H21.2962C21.2962 23.2305 21.5655 22.1977 22.104 21.3217C22.6426 20.4458 23.3973 19.7681 24.3679 19.2887C25.3385 18.8093 26.4571 18.5696 27.7237 18.5696C29.0258 18.5696 30.1592 18.8004 31.1239 19.2621C32.0946 19.7178 32.8492 20.3511 33.3878 21.1619C33.9264 21.9728 34.1957 22.902 34.1957 23.9496C34.1957 24.6361 34.0595 25.3138 33.7873 25.9826C33.521 26.6514 33.0445 27.3942 32.358 28.2109C31.6714 29.0218 30.7037 29.9954 29.4549 31.1317L26.8004 33.733V33.8572H34.4354V37H21.4737Z" fill="white"/>
</svg>
