<svg width="56" height="56" viewBox="0 0 56 56" fill="none" xmlns="http://www.w3.org/2000/svg">
<circle cx="28" cy="28" r="28" fill="#F77062"/>
<path d="M28.4545 37.2486C27.1287 37.2486 25.948 37.0207 24.9122 36.565C23.8824 36.1033 23.0686 35.4701 22.4708 34.6651C21.879 33.8543 21.5742 32.9192 21.5564 31.8597H25.4272C25.4508 32.3036 25.5958 32.6942 25.8622 33.0316C26.1344 33.363 26.4955 33.6205 26.9453 33.804C27.3951 33.9875 27.9011 34.0792 28.4634 34.0792C29.0493 34.0792 29.5672 33.9756 30.017 33.7685C30.4668 33.5613 30.819 33.2743 31.0735 32.9073C31.328 32.5404 31.4552 32.1172 31.4552 31.6378C31.4552 31.1525 31.3191 30.7234 31.0468 30.3505C30.7805 29.9717 30.3958 29.6758 29.8927 29.4627C29.3956 29.2496 28.8037 29.1431 28.1171 29.1431H26.4215V26.32H28.1171C28.6972 26.32 29.2091 26.2193 29.653 26.0181C30.1028 25.8169 30.452 25.5387 30.7006 25.1836C30.9492 24.8226 31.0735 24.4023 31.0735 23.9229C31.0735 23.4672 30.964 23.0677 30.745 22.7244C30.5319 22.3752 30.2301 22.103 29.8394 21.9077C29.4547 21.7124 29.0049 21.6147 28.49 21.6147C27.9692 21.6147 27.4927 21.7094 27.0607 21.8988C26.6286 22.0823 26.2824 22.3456 26.022 22.6889C25.7616 23.0322 25.6225 23.4347 25.6047 23.8963H21.9204C21.9382 22.8487 22.2371 21.9254 22.8171 21.1264C23.3971 20.3274 24.1783 19.703 25.1608 19.2532C26.1492 18.7975 27.2649 18.5696 28.5078 18.5696C29.7625 18.5696 30.8604 18.7975 31.8014 19.2532C32.7425 19.7089 33.4734 20.3245 33.9943 21.0998C34.521 21.8692 34.7814 22.7333 34.7755 23.6921C34.7814 24.7101 34.4648 25.5594 33.8256 26.2401C33.1923 26.9207 32.3667 27.3527 31.3487 27.5362V27.6783C32.6863 27.8499 33.7043 28.3145 34.4027 29.0721C35.107 29.8237 35.4562 30.7648 35.4502 31.8952C35.4562 32.931 35.1573 33.8513 34.5536 34.6562C33.9558 35.4612 33.1302 36.0945 32.0767 36.5561C31.0232 37.0178 29.8158 37.2486 28.4545 37.2486Z" fill="white"/>
</svg>
