<svg width="56" height="56" viewBox="0 0 56 56" fill="none" xmlns="http://www.w3.org/2000/svg">
<circle cx="28" cy="28" r="28" fill="#F77062"/>
<path d="M27.3002 18.5696C28.2354 18.5696 29.135 18.7264 29.9991 19.0401C30.8691 19.3538 31.6445 19.8539 32.3251 20.5405C33.0117 21.227 33.5532 22.1385 33.9498 23.2749C34.3522 24.4053 34.5564 25.7932 34.5623 27.4386C34.5623 28.9833 34.3877 30.3623 34.0385 31.5756C33.6953 32.783 33.2011 33.8099 32.5559 34.6562C31.9108 35.5026 31.1325 36.1477 30.2211 36.5916C29.3096 37.0296 28.2916 37.2486 27.1671 37.2486C25.9538 37.2486 24.8825 37.0148 23.9533 36.5472C23.0241 36.0737 22.2754 35.4316 21.7072 34.6207C21.1449 33.804 20.8046 32.8866 20.6863 31.8686H24.4771C24.6251 32.5315 24.9358 33.0464 25.4093 33.4134C25.8828 33.7744 26.4687 33.9549 27.1671 33.9549C28.3508 33.9549 29.2504 33.44 29.8659 32.4102C30.4815 31.3744 30.7922 29.9569 30.7981 28.1577H30.6738C30.4016 28.6903 30.0346 29.149 29.573 29.5337C29.1113 29.9125 28.5816 30.2055 27.9838 30.4126C27.392 30.6198 26.7617 30.7234 26.0929 30.7234C25.0216 30.7234 24.0658 30.4718 23.2253 29.9688C22.3849 29.4657 21.722 28.7732 21.2367 27.8913C20.7514 27.0095 20.5087 26.0033 20.5087 24.8729C20.5028 23.6536 20.7839 22.5676 21.3521 21.6147C21.9203 20.6618 22.7134 19.9161 23.7314 19.3775C24.7553 18.833 25.9449 18.5637 27.3002 18.5696ZM27.3269 21.5881C26.7291 21.5881 26.1964 21.7301 25.7289 22.0142C25.2672 22.2983 24.9003 22.68 24.628 23.1594C24.3617 23.6388 24.2315 24.1745 24.2374 24.7663C24.2374 25.3641 24.3676 25.9027 24.628 26.3821C24.8944 26.8556 25.2554 27.2344 25.7111 27.5185C26.1728 27.7966 26.6995 27.9357 27.2914 27.9357C27.7353 27.9357 28.1466 27.8529 28.5254 27.6871C28.9042 27.5214 29.2327 27.2936 29.5108 27.0036C29.7949 26.7076 30.0169 26.3673 30.1767 25.9826C30.3365 25.5979 30.4164 25.1895 30.4164 24.7575C30.4105 24.1834 30.2743 23.6566 30.008 23.1772C29.7417 22.6978 29.3747 22.3131 28.9071 22.0231C28.4396 21.7331 27.9128 21.5881 27.3269 21.5881Z" fill="white"/>
</svg>
