<svg width="56" height="56" viewBox="0 0 56 56" fill="none" xmlns="http://www.w3.org/2000/svg">
<circle cx="28" cy="28" r="28" fill="#F77062"/>
<path d="M27.6998 37.2486C26.7646 37.2427 25.862 37.0858 24.992 36.7781C24.1279 36.4703 23.3526 35.9702 22.666 35.2777C21.9795 34.5852 21.435 33.6679 21.0325 32.5256C20.6359 31.3833 20.4377 29.9806 20.4377 28.3175C20.4436 26.7905 20.6182 25.4263 20.9615 24.2248C21.3107 23.0174 21.8078 21.9935 22.4529 21.1531C23.104 20.3126 23.8823 19.6734 24.7878 19.2354C25.6934 18.7915 26.7084 18.5696 27.8329 18.5696C29.0462 18.5696 30.1175 18.8063 31.0467 19.2798C31.9759 19.7474 32.7217 20.3836 33.2839 21.1886C33.8521 21.9935 34.1954 22.8961 34.3137 23.8963H30.5229C30.3749 23.263 30.0642 22.7659 29.5907 22.4048C29.1172 22.0438 28.5313 21.8633 27.8329 21.8633C26.6492 21.8633 25.7496 22.3782 25.1341 23.408C24.5244 24.4379 24.2137 25.8376 24.2019 27.6072H24.3262C24.5984 27.0687 24.9654 26.61 25.427 26.2312C25.8946 25.8465 26.4243 25.5535 27.0162 25.3523C27.6139 25.1451 28.2443 25.0415 28.9071 25.0415C29.9843 25.0415 30.9431 25.296 31.7836 25.805C32.624 26.3081 33.2869 27.0006 33.7722 27.8825C34.2575 28.7643 34.5002 29.7734 34.5002 30.9098C34.5002 32.1409 34.2131 33.2358 33.639 34.1946C33.0708 35.1534 32.2748 35.9051 31.2509 36.4496C30.2329 36.9882 29.0492 37.2545 27.6998 37.2486ZM27.682 34.2301C28.2739 34.2301 28.8036 34.0881 29.2711 33.804C29.7387 33.5199 30.1056 33.1352 30.372 32.6499C30.6383 32.1645 30.7715 31.62 30.7715 31.0163C30.7715 30.4126 30.6383 29.8711 30.372 29.3917C30.1116 28.9123 29.7505 28.5305 29.2889 28.2464C28.8272 27.9624 28.3005 27.8203 27.7086 27.8203C27.2647 27.8203 26.8534 27.9032 26.4746 28.0689C26.1017 28.2346 25.7733 28.4654 25.4892 28.7614C25.211 29.0573 24.992 29.4006 24.8322 29.7912C24.6724 30.1759 24.5925 30.5872 24.5925 31.0252C24.5925 31.6112 24.7257 32.1468 24.992 32.6321C25.2643 33.1174 25.6312 33.5051 26.0929 33.7951C26.5604 34.0851 27.0901 34.2301 27.682 34.2301Z" fill="white"/>
</svg>
