<svg width="57" height="57" viewBox="0 0 57 57" fill="none" xmlns="http://www.w3.org/2000/svg">
<path d="M42.8331 18.8893V14.1679C42.8331 10.2566 39.661 7.08452 35.7497 7.08452H34.5389C33.4344 5.60144 31.6946 4.72708 29.8463 4.72266H22.7629C20.9146 4.72708 19.177 5.60144 18.0725 7.08452H16.8617C12.9481 7.08452 9.77832 10.2566 9.77832 14.1679V40.1393C9.77832 44.0528 12.9481 47.2227 16.8617 47.2227H24.3791C25.3751 50.0427 28.0358 51.9331 31.0283 51.9463H42.8331C46.7444 51.9463 49.9165 48.7743 49.9165 44.863V25.9726C49.9165 22.0613 46.7444 18.8893 42.8331 18.8893ZM22.7629 9.44639H29.8462C30.4992 9.44639 31.0282 9.97321 31.0282 10.6262C31.0282 11.2792 30.4992 11.806 29.8462 11.806H22.7629C22.1121 11.806 21.5831 11.2792 21.5831 10.6262C21.5831 9.97321 22.1121 9.44639 22.7629 9.44639ZM14.4997 40.1393V14.1679C14.4997 12.8641 15.5578 11.806 16.8616 11.806H16.9811C17.5412 14.5552 19.9583 16.5275 22.7628 16.5297H29.8462C32.6507 16.5275 35.0679 14.5552 35.6301 11.806H35.7497C36.3761 11.806 36.976 12.0561 37.4187 12.4989C37.8614 12.9416 38.1115 13.5414 38.1115 14.1679V18.8893H31.0282C27.1147 18.8893 23.9449 22.0614 23.9449 25.9727V42.5012H16.8615C15.5577 42.5012 14.4997 41.4431 14.4997 40.1393ZM45.1949 44.8608V44.863C45.1949 45.4895 44.9448 46.0893 44.5021 46.532C44.0593 46.9747 43.4595 47.2227 42.8331 47.2227H31.0283C29.7245 47.2227 28.6664 46.1668 28.6664 44.863V25.9726C28.6664 24.6688 29.7245 23.6129 31.0283 23.6129H42.8331C43.4595 23.6129 44.0594 23.8609 44.5021 24.3036C44.9447 24.7463 45.1949 25.3462 45.1949 25.9726V44.8608Z" fill="#F77062"/>
</svg>
