<svg width="335" height="335" viewBox="0 0 335 335" fill="none" xmlns="http://www.w3.org/2000/svg">
<path d="M322.923 129.433L299.473 105.983C297.589 104.099 295.063 103.039 292.42 103.039H292.315C289.672 103.039 287.185 104.099 285.406 105.983L254.091 137.298V82.8335C254.091 81.4071 253.934 79.9938 253.58 78.6198C253.633 78.5151 253.685 78.4628 253.737 78.3712C254.392 76.7485 254.038 74.9167 252.821 73.6996L186.843 7.66777C185.626 6.45078 183.742 6.04513 182.172 6.75175C182.067 6.80409 181.962 6.85643 181.871 6.90878C180.497 6.6078 179.083 6.39844 177.709 6.39844H28.1753C17.7196 6.39844 9.1875 14.9175 9.1875 25.3732V309.614C9.1875 320.07 17.7196 328.602 28.1753 328.602H235.115C245.571 328.602 254.103 320.07 254.103 309.614L254.09 212.266L322.972 143.384C326.78 139.537 326.731 133.241 322.923 129.433ZM198.514 255.765L173.141 230.391L269.269 134.263L294.642 159.637L198.514 255.765ZM168.927 238.308L190.597 259.979L157.752 271.194L168.927 238.308ZM188.111 21.0675L239.473 72.4833H198.513C192.781 72.4833 188.109 67.8117 188.109 62.0799L188.111 21.0675ZM245.52 309.626C245.52 315.358 240.848 320.03 235.117 320.03H28.177C22.4455 320.03 17.7735 315.358 17.7735 309.626V25.3723C17.7735 19.6407 22.4451 14.9688 28.177 14.9688H177.711C178.326 14.9688 178.928 15.0735 179.543 15.1782V62.0246C179.543 72.4803 188.075 81.0124 198.531 81.0124H245.377C245.482 81.6274 245.587 82.1771 245.587 82.7921V145.826L164.048 227.338C163.59 227.796 163.289 228.359 163.079 228.908C163.079 228.961 163.027 228.961 163.027 229.013L146.84 276.724C146.329 278.242 146.683 279.969 147.86 281.134C148.672 281.945 149.784 282.403 150.909 282.403C151.367 282.403 151.825 282.298 152.283 282.154L199.89 265.914C199.943 265.914 199.943 265.862 199.995 265.862C200.558 265.653 201.055 265.352 201.461 264.946L245.52 220.887L245.52 309.626ZM316.825 137.403L300.69 153.538L275.316 128.164L291.503 111.977C291.804 111.676 292.118 111.624 292.367 111.624C292.616 111.624 292.982 111.728 293.335 112.029L316.785 135.479C317.387 136.029 317.387 136.84 316.825 137.403Z" fill="black"/>
<path d="M36.7971 81.0519H159.833C162.214 81.0519 164.099 79.1283 164.099 76.786V33.4973C164.099 31.1157 162.175 29.2314 159.833 29.2314H36.7971C34.4155 29.2314 32.5312 31.1551 32.5312 33.4973V76.7994C32.5312 79.1287 34.4156 81.0519 36.7971 81.0519ZM41.1156 37.7632H155.578V72.4793H41.1156V37.7632Z" fill="black"/>
<path d="M32.8457 110.198C32.8457 112.579 34.7693 114.463 37.1116 114.463H226.139C228.52 114.463 230.405 112.54 230.405 110.198C230.405 107.816 228.481 105.932 226.139 105.932H37.1518C34.7701 105.932 32.8457 107.855 32.8457 110.198Z" fill="black"/>
<path d="M226.178 139.377H37.1507C34.769 139.377 32.8848 141.301 32.8848 143.643C32.8848 145.972 34.8084 147.909 37.1507 147.909H226.178C228.559 147.909 230.444 145.985 230.444 143.643C230.444 141.314 228.507 139.377 226.178 139.377Z" fill="black"/>
<path d="M155.774 172.876H37.1507C34.769 172.876 32.8848 174.8 32.8848 177.142C32.8848 179.524 34.8084 181.408 37.1507 181.408H155.774C158.156 181.408 160.04 179.484 160.04 177.142C160.04 174.76 158.103 172.876 155.774 172.876Z" fill="black"/>
<path d="M155.774 206.326H37.1507C34.769 206.326 32.8848 208.25 32.8848 210.592C32.8848 212.921 34.8084 214.858 37.1507 214.858H155.774C158.156 214.858 160.04 212.934 160.04 210.592C160.04 208.263 158.103 206.326 155.774 206.326Z" fill="black"/>
<path d="M112.573 239.771H37.1448C34.7631 239.771 32.8789 241.695 32.8789 244.037C32.8789 246.419 34.8025 248.303 37.1448 248.303H112.573C114.955 248.303 116.839 246.38 116.839 244.037C116.892 241.708 114.955 239.771 112.573 239.771Z" fill="black"/>
<path d="M112.573 273.273H37.1448C34.7631 273.273 32.8789 275.197 32.8789 277.539C32.8789 279.869 34.8025 281.805 37.1448 281.805H112.573C114.955 281.805 116.839 279.882 116.839 277.539C116.839 275.21 114.955 273.273 112.573 273.273Z" fill="black"/>
</svg>
