<svg width="64" height="64" viewBox="0 0 64 64" fill="none" xmlns="http://www.w3.org/2000/svg">
<path d="M40.533 17.1013V23.4346H44.333V17.1013C44.333 15.9261 43.8654 14.798 43.0342 13.9668C42.2029 13.1356 41.0748 12.668 39.8997 12.668H33.5664V16.4679H39.8997C40.0679 16.4679 40.2287 16.5347 40.3475 16.6535C40.4662 16.7722 40.533 16.9331 40.533 17.1013Z" fill="#F77062"/>
<path d="M16.466 17.1013C16.466 16.7525 16.7505 16.4679 17.0993 16.4679H23.4326V12.668H17.0993C14.6501 12.668 12.666 14.6521 12.666 17.1013V23.4346H16.466V17.1013Z" fill="#F77062"/>
<path d="M17.0993 44.335H23.4326V40.535H17.0993C16.7505 40.535 16.466 40.2505 16.466 39.9017V33.5684H12.666V39.9017C12.666 42.3509 14.6501 44.335 17.0993 44.335Z" fill="#F77062"/>
<path d="M32.2994 48.0694C32.7942 49.5588 34.1524 50.5904 35.7184 50.6671H35.9039C37.4031 50.6671 38.7638 49.7839 39.3749 48.4133L41.3318 43.98L48.1325 50.8181L50.8167 48.1338L44.0033 41.3179L48.4366 39.3611C49.8567 38.7154 50.7374 37.2656 50.6558 35.7071C50.5766 34.146 49.5499 32.7952 48.068 32.3004L31.6015 26.8083C30.2359 26.3531 28.7317 26.7093 27.7124 27.7261C26.6956 28.7454 26.3394 30.252 26.7946 31.6176L32.2994 48.0694ZM46.866 35.8924L39.266 39.2668L35.8916 46.8668L30.3994 30.4002L46.866 35.8924Z" fill="#F77062"/>
</svg>
