<svg width="314" height="433" viewBox="0 0 314 433" fill="none" xmlns="http://www.w3.org/2000/svg">
<path d="M224.59 407C218.69 397.2 213.99 394.6 199.39 394.2C184.79 393.8 165.39 394 165.39 394L165.19 414.7C165.19 414.7 181.29 424 189.89 428.6C190.39 428.9 191.79 429.7 192.79 430.3C194.29 431 195.89 431.6 197.49 432C205.99 433.8 213.69 432.9 219.19 427.4C225.29 421.3 230.49 416.8 224.59 407ZM114.49 388.6C113.99 389 112.69 390 111.79 390.7C110.59 391.8 109.49 393.1 108.49 394.4C103.69 401.6 101.59 409.1 104.69 416.3C108.09 424.2 110.39 430.8 121.59 428.9C132.79 427 137.09 423.6 142.89 410.3C148.69 397 155.79 378.8 155.69 378.8L136.59 370.9C136.59 370.9 121.99 382.4 114.49 388.6Z" fill="#4B44BE"/>
<path d="M166.69 394.9C166.69 394.9 166.99 415.8 163.59 416.3C160.19 416.8 113.29 410 94.5899 409C75.8899 408 33.4899 395.9 12.6899 372.4C-5.31007 352.1 -2.51008 329.6 10.7899 329.6C24.0899 329.6 36.2899 318.3 70.0899 334.4C103.89 350.5 139.69 353.2 159.79 351.6C179.89 350 236.19 339.6 240.59 336.4C244.99 333.2 266.09 324 295.49 327.2C324.89 330.4 310.99 353.7 304.79 362.7C296.09 375.2 275.49 388.6 258.29 389.2C241.09 389.8 166.69 394.9 166.69 394.9Z" fill="url(#paint0_linear_25_157)"/>
<path d="M131.89 29.3998C121.99 32.9998 109.39 81.9998 109.39 81.9998L109.19 81.7998L107.79 88.5998L106.09 97.4998L109.39 150.7L141.39 166.7L214.89 186.5L235.19 215.4C235.19 215.4 280.69 261.7 280.99 264.9C281.29 268.1 232.09 284.4 227.39 285.1C216.09 286.8 299.69 266.3 272.89 233.8C261.49 219.9 244.79 178.1 211.69 150.4C192.49 134.4 197.89 88.8998 191.09 60.0998C182.59 24.0998 177.39 13.2998 168.89 13.2998C161.19 13.2998 150.49 22.4998 131.89 29.3998Z" fill="url(#paint1_linear_25_157)"/>
<path d="M235.89 145.7C220.49 131.6 215.29 128.2 201.79 133C188.29 137.8 181.69 142.2 163.29 145.2C151.99 147.2 140.29 145.7 129.79 141.1L91.8901 144.9C87.0901 144.3 33.1901 245.5 31.8901 266.5C31.0901 279.4 60.3901 299.3 68.5901 301.3C71.8901 302.1 77.7901 270.3 79.6901 267.4L67.3901 263.6C69.5901 258.1 76.9901 244.5 81.8901 237.2C83.3901 234.9 95.0901 215.6 96.6901 208.2C96.9901 208.9 98.6901 222.9 100.29 227.4C103.29 235.7 107.39 240.4 107.39 247C107.39 253.6 106.59 279.8 101.79 291.6C96.9901 303.4 89.9901 330.7 89.9901 330.7L211.19 330C211.19 330 206.79 277.9 208.59 260C208.59 260 206.69 252.8 210.29 242.4C216.19 225.2 217.89 199.6 216.89 195.6C215.39 189.3 252.49 242.6 260.59 256.1C263.99 261.7 217.89 271.6 214.09 275.9C210.09 280.4 217.99 292.6 217.99 292.6C217.99 292.6 298.39 282.8 297.99 270.5C297.59 258.2 253.79 162 235.89 145.7Z" fill="url(#paint2_linear_25_157)"/>
<path d="M141.589 0.6C141.589 0.6 119.089 1.5 112.589 25.1C106.089 48.7 105.189 81.6 104.989 86.7C104.789 92.1 107.289 123.7 95.1895 136.9C84.7895 148.3 88.9894 159.3 86.3895 168.4L85.1895 183.5C85.3895 185.3 86.6895 186.8 88.3895 187.4C89.9895 187.9 95.5894 185.3 96.5894 184.9C110.589 179.3 110.589 174.8 115.889 170.3C120.289 166.6 132.389 158 135.989 154.6C139.589 151.2 142.089 148.2 142.289 143.9C142.989 122 139.189 101.8 134.389 91.1C129.589 80.4 120.389 62.3 128.089 50.3C135.789 38.3 149.689 26.3 150.489 23.3C151.289 20.3 151.689 34.9 160.189 40C168.689 45.1 175.789 52.2 178.389 59.1C180.589 64.9 183.489 74.8 175.489 91.9C167.489 109 160.989 131 172.289 147.3C183.589 163.6 207.389 181.2 211.289 189.4C215.689 198.5 211.489 219.9 210.689 232.8C209.889 245.7 235.889 210.4 235.089 193.6C234.289 176.8 237.089 169.6 220.989 143.8C204.889 118 194.389 73.8 193.989 63.1C193.589 52.4 188.789 22.7 179.089 14.2C170.689 7 168.889 0 151.689 0C148.289 0 144.889 0.2 141.589 0.6Z" fill="url(#paint3_linear_25_157)"/>
<path opacity="0.07" d="M90.29 358.2L203.89 358.8C203.89 358.8 190.59 369.2 184.19 370.4C177.79 371.6 150.39 385.2 140.19 380C132.99 376.1 90.29 358.2 90.29 358.2ZM153.59 103.1C153.59 103.1 164.19 105.8 168.59 99.5997C178.49 85.5997 169.49 106.7 169.49 106.7C169.49 106.7 166.59 114.9 166.79 119C166.99 123.1 155.39 103.7 153.59 103.1ZM111.19 175.1C109.89 176.7 107.99 178 106.99 182.1C105.29 188.7 103.49 196.1 98.89 202.9C96.19 206.9 97.69 222.4 102.19 232.2C103.49 235 107.49 242.3 107.39 244L107.09 258.2H119.29C119.29 258.2 129.69 259.3 127.49 250.7C125.59 243.1 115.69 214.8 122.39 208.6C134.99 197.1 119.09 174.1 124.99 166.7C130.09 160.3 137.39 155.7 137.39 153.6C137.39 152.8 135.49 155.4 134.19 156.3C131.69 158.1 130.39 159.5 128.29 160.9C125.99 162.4 122.49 164.9 120.19 166.6C116.89 169.1 113.89 171.9 111.19 175.1Z" fill="black"/>
<path d="M63.6903 266.2C63.6903 266.2 63.5903 258.8 70.8903 258.5C78.1903 258.2 232.79 258.4 232.79 258.4C232.79 258.4 239.59 259.2 239.79 264.7C239.99 270.2 239.99 351.9 239.99 351.9C239.99 351.9 240.09 358.2 233.39 358.4C226.69 358.6 69.0903 358.6 69.0903 358.6C69.0903 358.6 63.1903 357.1 63.2903 351.2C63.3903 345.3 63.6903 266.2 63.6903 266.2Z" fill="white"/>
<path d="M152.29 315.2C155.99 315.2 158.99 312.2 158.99 308.5C158.99 304.8 155.99 301.8 152.29 301.8C148.59 301.8 145.59 304.8 145.59 308.5C145.59 312.2 148.59 315.2 152.29 315.2Z" fill="url(#paint4_linear_25_157)"/>
<defs>
<linearGradient id="paint0_linear_25_157" x1="313.544" y1="371.036" x2="-7.47547e-05" y2="371.036" gradientUnits="userSpaceOnUse">
<stop stop-color="#5ACEED"/>
<stop offset="1" stop-color="#538BD6"/>
</linearGradient>
<linearGradient id="paint1_linear_25_157" x1="106.09" y1="149.249" x2="280.991" y2="149.249" gradientUnits="userSpaceOnUse">
<stop stop-color="#F87B58"/>
<stop offset="0.5" stop-color="#F8C548"/>
<stop offset="1" stop-color="#F89C51"/>
</linearGradient>
<linearGradient id="paint2_linear_25_157" x1="31.8741" y1="230.826" x2="297.991" y2="230.826" gradientUnits="userSpaceOnUse">
<stop stop-color="#E1A1ED"/>
<stop offset="1" stop-color="#7658F4"/>
</linearGradient>
<linearGradient id="paint3_linear_25_157" x1="85.1895" y1="117.788" x2="235.107" y2="117.788" gradientUnits="userSpaceOnUse">
<stop stop-color="#5ACEED"/>
<stop offset="1" stop-color="#538BD6"/>
</linearGradient>
<linearGradient id="paint4_linear_25_157" x1="158.99" y1="308.5" x2="145.63" y2="308.5" gradientUnits="userSpaceOnUse">
<stop stop-color="#59C2E9"/>
<stop offset="1" stop-color="#5BD3EF"/>
</linearGradient>
</defs>
</svg>
